<?xml version="1.0" encoding="UTF-8"?><svg id="Layer_1" xmlns="http://www.w3.org/2000/svg" viewBox="0 0 6261.58 838.98"><defs><style>.cls-1{fill:#f28f1c;}.cls-2{fill:#fcc00d;}</style></defs><path class="cls-1" d="M316.54,70.73V600.19c0,22.4-4.01,43.02-12,61.87-8,18.87-19.36,35.66-34.05,50.36-14.72,14.72-31.65,26.23-50.83,34.54-19.19,8.29-39.66,12.46-61.38,12.46s-42.06-4.16-60.91-12.46c-18.87-8.31-35.66-19.82-50.36-34.54-14.72-14.7-26.23-31.48-34.54-50.36-8.32-18.85-12.47-39.47-12.47-61.87V70.73H97.84V590.61c0,24.3,5.75,42.2,17.27,53.7,11.5,11.51,25.89,17.27,43.16,17.27s31.64-5.76,43.16-17.27c11.5-11.5,17.25-29.4,17.25-53.7V70.73h97.85Z"/><path class="cls-1" d="M424.6,799.63V116.71h93.99l147.72,411.48h1.92V116.71h97.84V799.63h-92.07l-149.64-410.53h-1.92v410.53h-97.84Z"/><path class="cls-1" d="M853.92,753.66V70.73h97.85V753.66h-97.85Z"/><path class="cls-1" d="M1141.26,682.93V92.09h-113.17V0h324.19V92.09h-113.18V682.93h-97.84Z"/><path class="cls-1" d="M1740.28,267.36h-97.84v-22.07c0-22.37-5.28-41.72-15.82-58.02-10.55-16.3-28.3-24.46-53.24-24.46-13.43,0-24.3,2.56-32.61,7.67-8.32,5.12-15.03,11.51-20.14,19.19-5.13,8.32-8.64,17.74-10.55,28.29-1.92,10.55-2.89,21.58-2.89,33.09,0,13.43,.49,24.62,1.44,33.57,.96,8.97,3.36,16.95,7.19,23.98,3.83,7.04,9.43,13.11,16.79,18.22,7.35,5.12,17.4,10.23,30.21,15.35l74.82,29.73c21.72,8.32,39.33,18.08,52.75,29.26,13.44,11.19,23.98,24.14,31.66,38.84,7.03,15.35,11.82,32.77,14.39,52.27,2.54,19.51,3.83,41.73,3.83,66.66,0,28.77-2.89,55.49-8.64,80.09-5.75,24.63-15.03,45.56-27.8,62.83-13.44,17.91-31.02,31.98-52.77,42.2s-48.27,15.35-79.6,15.35c-23.66,0-45.72-4.16-66.19-12.46-20.47-8.31-38.05-19.82-52.75-34.54-14.72-14.7-26.38-31.8-35.01-51.31-8.64-19.5-12.96-40.76-12.96-63.79v-36.44h97.84v30.69c0,17.9,5.28,34.05,15.83,48.44,10.54,14.39,28.29,21.58,53.23,21.58,16.62,0,29.57-2.4,38.86-7.19,9.25-4.8,16.45-11.67,21.58-20.62,5.1-8.96,8.14-19.66,9.11-32.14,.95-12.47,1.43-26.37,1.43-41.73,0-17.89-.65-32.61-1.92-44.12-1.29-11.5-3.85-20.76-7.68-27.82-4.47-7.03-10.39-12.78-17.75-17.26-7.36-4.46-17.11-9.26-29.25-14.39l-70.02-28.77c-42.2-17.26-70.49-40.12-84.88-68.58-14.39-28.44-21.58-64.1-21.58-106.95,0-25.57,3.5-49.88,10.55-72.9,7.03-23.02,17.58-42.83,31.64-59.47,13.44-16.62,30.54-29.89,51.33-39.81,20.78-9.9,45.55-14.86,74.33-14.86,24.3,0,46.52,4.48,66.66,13.43,20.15,8.96,37.57,20.79,52.27,35.48,29.41,30.69,44.13,65.87,44.13,105.52v47.95Z"/><path class="cls-2" d="M2167.09,815.55l152.51-682.93h81.53l152.5,682.93h-97.82l-28.77-146.75h-133.32l-28.77,146.75h-97.85Zm241.72-238.84l-47.97-247.46h-1.92l-47.97,247.46h97.85Z"/><path class="cls-2" d="M2617.77,753.66V70.73h157.32c115.1,0,172.65,66.83,172.65,200.47,0,40.29-6.24,74.5-18.71,102.63-12.47,28.15-34.38,50.84-65.7,68.1l105.5,311.73h-103.59l-91.13-291.58h-58.5v291.58h-97.85Zm97.85-590.84v212.94h55.63c17.25,0,31-2.4,41.25-7.19,10.21-4.8,18.22-11.67,23.97-20.62,5.11-8.96,8.64-19.98,10.55-33.09,1.92-13.1,2.88-28.3,2.88-45.56s-.96-32.44-2.88-45.56c-1.92-13.1-5.75-24.46-11.51-34.04-12.15-17.9-35.18-26.86-69.06-26.86h-50.83Z"/><path class="cls-2" d="M3037.37,833.23V150.3h291.58v92.09h-193.76v200.47h168.82v92.07h-168.82v200.47h193.76v97.84h-291.58Z"/><path class="cls-1" d="M3818.45,718.29V35.37h291.59V127.45h-193.76v207.17h168.82v92.09h-168.82v291.58h-97.84Z"/><path class="cls-1" d="M4129.78,753.66l152.51-682.93h81.52l152.51,682.93h-97.82l-28.77-146.75h-133.33l-28.77,146.75h-97.84Zm241.71-238.84l-47.95-247.46h-1.92l-47.97,247.46h97.84Z"/><path class="cls-1" d="M4589.3,780.18V97.25h97.84V682.35h193.75v97.84h-291.58Z"/><path class="cls-1" d="M4935.59,709.45V26.52h97.84V611.62h193.76v97.84h-291.59Z"/><path class="cls-1" d="M5302.45,718.29V35.37h97.84V718.29h-97.84Z"/><path class="cls-1" d="M5495.17,780.18V97.25h94l147.71,411.48h1.92V97.25h97.84V780.18h-92.07l-149.64-410.53h-1.92v410.53h-97.84Z"/><path class="cls-1" d="M5933.54,311.45c0-27.5,4.79-51.8,14.39-72.91,9.6-21.1,22.37-38.68,38.37-52.75,15.35-13.43,32.76-23.65,52.27-30.69,19.5-7.03,39.16-10.55,58.99-10.55s39.47,3.53,58.98,10.55c19.5,7.04,37.25,17.26,53.23,30.69,15.35,14.07,27.82,31.65,37.41,52.75,9.6,21.11,14.39,45.41,14.39,72.91v34.53h-97.84v-34.53c0-23.65-6.57-41.08-19.66-52.28-13.11-11.18-28.62-16.78-46.51-16.78s-33.42,5.6-46.52,16.78c-13.12,11.2-19.66,28.63-19.66,52.28v360.64c0,23.66,6.54,41.09,19.66,52.27,13.1,11.19,28.61,16.79,46.52,16.79s33.4-5.6,46.51-16.79c13.1-11.18,19.66-28.61,19.66-52.27v-128.53h-77.69v-86.32h175.52v214.85c0,28.77-4.79,53.4-14.39,73.85-9.6,20.47-22.07,37.41-37.41,50.83-15.98,14.08-33.73,24.63-53.23,31.66-19.51,7.03-39.17,10.54-58.98,10.54s-39.49-3.51-58.99-10.54c-19.51-7.03-36.93-17.58-52.27-31.66-16-13.42-28.77-30.36-38.37-50.83-9.6-20.46-14.39-45.08-14.39-73.85V311.45Z"/></svg>